<svg version="1" xmlns="http://www.w3.org/2000/svg" width="266.667" height="266.667" viewBox="0 0 200 200"><path d="M82.3 22c-33.4 8.8-56.2 34.6-60.5 68.7-2.8 21.6 5 45.2 20.7 63.1 7.2 8.1 7.6 8.2 14 2.1 3-2.9 5.5-5.6 5.5-6.1 0-.6-2.4-3.6-5.2-6.8-6.8-7.4-11.3-14.9-14.6-24.2-3.6-10.1-3.8-26.8-.5-37.3 9.1-28.8 36.3-46.6 66.4-43.4 10.1 1.1 18.9 4.3 27.4 10.1 13 8.6 21.6 20.9 25.5 36.4 6.1 23.9-3.1 49.9-22.8 64.5-7.9 5.8-20.3 10.9-27.4 11.2l-5.1.2.2-7.2c.2-6.1 0-7.3-1.7-8.2-2.5-1.3-13-1.7-14.2-.5-.9.9-2.8 15.8-3.2 25.8-.4 7.4 1.7 8.6 14.6 8.6 24 0 47.4-11.2 62.2-29.8 5.4-6.9 12.6-21.3 15-30.2 2.5-9 2.5-30 0-39-7.7-28.4-30.8-51.3-58.8-58-11-2.6-27.5-2.6-37.5 0z"/><path d="M92.3 57.4c-2.3.7-6.2 2.5-8.5 3.9-5 2.9-13.8 11.9-13.8 14.1C70 77 80 86 81.8 86c.6 0 2.8-1.8 4.9-4.1 4.8-5.2 10.1-7.9 15.5-7.9 15 0 23.4 18.5 13.5 29.7-3.8 4.3-8.1 6.3-13.7 6.3-2.9 0-4.8.7-7.1 2.8-3 2.7-3.2 3.4-3.7 10.9-.5 9.5-.1 10 9.2 10.4 6.1.3 7.2-.3 7.8-3.9.2-1.8 1.5-2.8 5.7-4.2 25.5-9 32.2-41.3 12.5-60.2-8.4-8-23.8-11.8-34.1-8.4z"/></svg>